<?xml version="1.0" standalone="no"?>
<!DOCTYPE svg PUBLIC "-//W3C//DTD SVG 20010904//EN"
 "http://www.w3.org/TR/2001/REC-SVG-20010904/DTD/svg10.dtd">
<svg version="1.0" xmlns="http://www.w3.org/2000/svg"
 width="400.000000pt" height="400.000000pt" viewBox="0 0 400.000000 400.000000"
 preserveAspectRatio="xMidYMid meet">
<metadata>
Created by potrace 1.14, written by Peter Selinger 2001-2017
</metadata>
<g transform="translate(0.000000,400.000000) scale(0.100000,-0.100000)"
fill="#000000" stroke="none">
<path d="M1890 3828 c-627 -53 -1172 -417 -1455 -972 -73 -143 -138 -322 -159
-436 -2 -14 -7 -36 -10 -50 -33 -145 -38 -437 -11 -595 7 -36 25 -131 31 -163
23 -114 118 -346 195 -478 140 -237 350 -455 585 -607 165 -107 409 -207 589
-243 138 -27 237 -37 375 -37 92 -1 249 10 273 18 7 2 30 7 52 10 80 12 278
69 355 102 144 63 365 191 421 245 8 7 34 29 59 49 215 173 409 447 521 739
33 84 84 279 93 355 18 146 21 189 20 290 -2 207 -33 383 -99 573 -149 429
-466 795 -865 1001 -174 89 -364 154 -515 176 -22 3 -45 8 -52 10 -14 5 -162
16 -248 19 -33 1 -103 -2 -155 -6z m250 -584 c0 -8 -19 -13 -24 -6 -3 5 1 9 9
9 8 0 15 -2 15 -3z m-1130 -400 c0 -8 -19 -13 -24 -6 -3 5 1 9 9 9 8 0 15 -2
15 -3z m2080 -320 c0 -8 -19 -13 -24 -6 -3 5 1 9 9 9 8 0 15 -2 15 -3z m-2710
-240 c0 -8 -19 -13 -24 -6 -3 5 1 9 9 9 8 0 15 -2 15 -3z m1587 -1769 c0 -8
-4 -12 -9 -9 -5 3 -6 10 -3 15 9 13 12 11 12 -6z"/>
</g>
</svg>
